<?xml version="1.0" encoding="UTF-8" standalone="no"?>
<!-- Created with Inkscape (http://www.inkscape.org/) -->

<svg
   xmlns:dc="http://purl.org/dc/elements/1.1/"
   xmlns:cc="http://creativecommons.org/ns#"
   xmlns:rdf="http://www.w3.org/1999/02/22-rdf-syntax-ns#"
   xmlns:svg="http://www.w3.org/2000/svg"
   xmlns="http://www.w3.org/2000/svg"
   xmlns:sodipodi="http://sodipodi.sourceforge.net/DTD/sodipodi-0.dtd"
   xmlns:inkscape="http://www.inkscape.org/namespaces/inkscape"
   width="400mm"
   height="400mm"
   viewBox="0 0 400 400"
   version="1.1"
   id="svg827"
   inkscape:version="0.92.3 (2405546, 2018-03-11)"
   sodipodi:docname="ggos-product-ICON_height-system.svg">
  <defs
     id="defs821" />
  <sodipodi:namedview
     id="base"
     pagecolor="#ffffff"
     bordercolor="#666666"
     borderopacity="1.0"
     inkscape:pageopacity="0.0"
     inkscape:pageshadow="2"
     inkscape:zoom="0.24748737"
     inkscape:cx="702.49154"
     inkscape:cy="820.83558"
     inkscape:document-units="mm"
     inkscape:current-layer="g4"
     showgrid="false"
     inkscape:window-width="1920"
     inkscape:window-height="1017"
     inkscape:window-x="1912"
     inkscape:window-y="-1"
     inkscape:window-maximized="1"
     objecttolerance="7"
     guidetolerance="3"
     gridtolerance="8" />
  <metadata
     id="metadata824">
    <rdf:RDF>
      <cc:Work
         rdf:about="">
        <dc:format>image/svg+xml</dc:format>
        <dc:type
           rdf:resource="http://purl.org/dc/dcmitype/StillImage" />
        <dc:title />
      </cc:Work>
    </rdf:RDF>
  </metadata>
  <g
     inkscape:label="Layer 1"
     inkscape:groupmode="layer"
     id="layer1"
     transform="translate(0,103)">
    <path
       inkscape:connector-curvature="0"
       d="m 335.41063,290.12436 h 49.49313 c 5.41887,0 9.75402,-5.93894 9.75402,-13.36271 V -82.048795 c 0,-7.423757 -4.33515,-13.362692 -9.75402,-13.362692 h -49.49313 c -5.41888,0 -9.75403,5.938935 -9.75403,13.362692 v 29.694665 h 34.68123 v 18.311739 H 325.6566 v 24.2506724 h 17.34063 V 8.519834 H 325.6566 v 24.250673 h 34.68123 V 51.08224 H 325.6566 v 24.250677 h 17.34063 V 92.654768 H 325.6566 v 24.250662 h 34.68123 v 18.31173 H 325.6566 v 24.25068 h 17.34063 v 18.31157 H 325.6566 v 24.25065 h 34.68123 v 18.31176 H 325.6566 v 24.25067 h 17.34063 v 18.31173 H 325.6566 v 14.35239 c 0,6.92881 4.33515,12.86775 9.75403,12.86775 z"
       id="path2"
       style="stroke-width:0.26458341" />
    <g
       transform="matrix(72.217145,0,0,118.01403,-99.462708,-164.69322)"
       id="g4"
       style="stroke-width:0.002866">
      <path
         style="fill:#000000;stroke-width:0.002866"
         inkscape:connector-curvature="0"
         d="M 5.8011839,2.7940091 C 5.7689746,2.762091 5.7323229,2.7325084 5.6867858,2.7068182 5.5501745,2.5301009 5.329153,2.3751812 5.0992463,2.2560723 4.910434,2.1564255 4.7560522,2.1307352 4.6127769,2.2397239 4.465059,2.1213934 4.4050835,1.9602458 4.2484802,1.8411368 4.0796599,1.7095719 3.984143,1.5390825 3.7497936,1.4518916 3.6431702,1.4137456 3.5243295,1.4386573 3.4588005,1.506386 3.3543984,1.6293875 3.2766522,1.7640663 3.1533689,1.8761689 3.0167576,2.0022843 2.894585,2.1338492 2.766859,2.2591862 2.6846701,2.2140337 2.6024812,2.1735522 2.5325096,2.111273 2.4825299,2.0598926 2.4136689,2.0209681 2.3459186,1.982822 2.227078,1.9213213 2.0593682,1.866827 1.9360848,1.950904 1.7994736,2.0474368 1.729502,2.1766662 1.6473131,2.2981107 1.5928911,2.3790737 1.4696074,2.5129741 1.4696074,2.5129741 c 0,0 -0.066878,0.191706 0.1424254,0.011857 0.056619,-0.048651 -0.00393,0.035565 0.1274651,-0.1107258 0.077746,-0.077849 0.127726,-0.1712679 0.1976976,-0.2545663 0.00444,-0.00934 0.045537,-0.054495 0.077746,-0.083298 0.032209,0.063836 0.065528,0.1214446 0.077746,0.1899517 0.023324,0.079406 0.1466072,0.1222229 0.1510499,0.2062999 0.00444,0.066172 0.041094,0.1152166 0.1155088,0.1541412 0.045537,0.02569 0.091074,0.028804 0.1477178,0.047488 0.029988,0.00701 0.04998,0.018683 0.063308,0.035811 -0.00444,0.083298 -0.022213,0.1704895 -0.027766,0.2467815 0,0.010899 0.015549,0.014013 0.023324,0.00701 C 2.61581,2.9185723 2.648019,2.8827613 2.6813386,2.828267 2.7135476,2.770659 2.7812986,2.7099364 2.804622,2.6492141 2.81795,2.6165181 2.822393,2.5807071 2.827946,2.548789 2.832386,2.536333 2.840163,2.519984 2.840163,2.504416 V 2.498186 C 2.867929,2.466268 2.894585,2.429679 2.935679,2.411774 3.0423024,2.360393 3.0878395,2.3051208 3.1444832,2.2280502 3.2722092,2.0505544 3.4288123,1.8932993 3.5976328,1.7391582 c 0.013328,0 0.027766,0.00623 0.041094,0.00934 0.00889,0.087191 0.04998,0.1650398 0.086632,0.2475598 0.047759,0.1027608 0.1566032,0.1837238 0.2088042,0.2857061 0.00444,0.00623 0.00444,0.013234 0.00889,0.019463 -0.1066272,0 -0.3909563,-0.057608 -0.3820709,-0.038146 0.017771,0.070843 0.097738,0.2498954 0.1610457,0.3051683 0.097738,0.080963 0.1665991,0.1455776 0.2299068,0.238218 0.127726,0.1798313 0.366518,0.2187558 0.6197486,0.2825921 0.054423,0.016348 0.099959,-0.045932 0.054423,-0.071621 C 4.523921,2.9637207 4.4328468,2.9162332 4.3873098,2.8352702 c 0.022213,0 0.041094,0 0.058865,-0.00389 0.027766,0.00701 0.059975,0.00701 0.073304,-0.00856 0.019992,-0.013234 0.032209,-0.028805 0.047759,-0.045932 0.017771,-0.01557 0.025546,-0.031918 0.036653,-0.051381 0.078857,-0.1276724 0.091074,-0.279478 0.2243534,-0.3799033 0.056644,0.035811 0.111066,0.068507 0.173263,0.1004253 0.041095,0.022576 0.093296,0.054495 0.147718,0.083298 -0.04998,0 -0.095517,0.00623 -0.127726,0.018683 -0.023324,0.013235 -0.027766,0.03581 0,0.045153 0.1188406,0.045152 0.2621159,0.033475 0.36985,0.1004252 0.1066234,0.060722 0.2343494,0.1191091 0.3731819,0.1354574 0.026655,0.00233 0.054423,-0.016348 0.036652,-0.035032 z"
         id="path2-6"
         sodipodi:nodetypes="ccccccccccccccscccccccccccccsccccccccccccccccccccccccccc" />
    </g>
  </g>
</svg>
