<?xml version="1.0" encoding="UTF-8" standalone="no"?>
<!-- Created with Inkscape (http://www.inkscape.org/) -->

<svg
   xmlns:dc="http://purl.org/dc/elements/1.1/"
   xmlns:cc="http://creativecommons.org/ns#"
   xmlns:rdf="http://www.w3.org/1999/02/22-rdf-syntax-ns#"
   xmlns:svg="http://www.w3.org/2000/svg"
   xmlns="http://www.w3.org/2000/svg"
   xmlns:sodipodi="http://sodipodi.sourceforge.net/DTD/sodipodi-0.dtd"
   xmlns:inkscape="http://www.inkscape.org/namespaces/inkscape"
   width="400mm"
   height="400mm"
   viewBox="0 0 400 400"
   version="1.1"
   id="svg827"
   inkscape:version="0.92.3 (2405546, 2018-03-11)"
   sodipodi:docname="ggos-product-ICON_GlobalGravityField.svg">
  <defs
     id="defs821">
    <inkscape:path-effect
       effect="bspline"
       id="path-effect829"
       is_visible="true"
       weight="33.333333"
       steps="2"
       helper_size="0"
       apply_no_weight="true"
       apply_with_weight="true"
       only_selected="false" />
    <inkscape:path-effect
       effect="bspline"
       id="path-effect825"
       is_visible="true"
       weight="33.333333"
       steps="2"
       helper_size="0"
       apply_no_weight="true"
       apply_with_weight="true"
       only_selected="false" />
  </defs>
  <sodipodi:namedview
     id="base"
     pagecolor="#ffffff"
     bordercolor="#666666"
     borderopacity="1.0"
     inkscape:pageopacity="0.0"
     inkscape:pageshadow="2"
     inkscape:zoom="0.24748737"
     inkscape:cx="2045.0243"
     inkscape:cy="452.88865"
     inkscape:document-units="mm"
     inkscape:current-layer="g16"
     showgrid="false"
     inkscape:window-width="1920"
     inkscape:window-height="1017"
     inkscape:window-x="1912"
     inkscape:window-y="-1"
     inkscape:window-maximized="1"
     objecttolerance="7"
     guidetolerance="3"
     gridtolerance="8" />
  <metadata
     id="metadata824">
    <rdf:RDF>
      <cc:Work
         rdf:about="">
        <dc:format>image/svg+xml</dc:format>
        <dc:type
           rdf:resource="http://purl.org/dc/dcmitype/StillImage" />
        <dc:title />
      </cc:Work>
    </rdf:RDF>
  </metadata>
  <g
     inkscape:label="Layer 1"
     inkscape:groupmode="layer"
     id="layer1"
     transform="translate(0,103)">
    <g
       transform="matrix(72.217145,0,0,118.01403,-99.462708,-164.69322)"
       id="g4"
       style="stroke-width:0.002866">
      <g
         transform="matrix(0.08230832,0,0,0.0503676,1.4962808,0.60184177)"
         data-name="28-gravity"
         id="g16"
         style="stroke-width:0.00012757">
        <path
           inkscape:connector-curvature="0"
           d="M 63.81353,62.557214 C 63.39361,62.019786 53.27055,49.39895 32,49.39895 c -21.27055,0 -31.39361,12.620836 -31.81353,13.158264 a 0.99970066,0.91229108 0 1 0 1.627,1.060491 27.16769,24.792263 0 0 1 3.73744,-3.565754 l -0.1056,0.144532 3,1.825129 a 0.99317,0.90633144 0 0 0 0.8711,0.106049 l 3,-0.912565 A 0.99568,0.90862197 0 0 0 12.707,60.994904 l 0.56347,-0.513318 2.34571,0.712941 3.93653,1.796611 a 1.00109,0.91355895 0 0 0 0.89453,0 l 2,-0.912564 A 1.00038,0.91291102 0 0 0 23,61.262285 v -1.825128 a 0.99908,0.91172469 0 0 0 -0.05175,-0.288745 l -1,-2.737693 A 0.99889,0.9115513 0 0 0 21,55.7869 H 19.61814 L 18.25779,53.304141 A 41.33175,37.717877 0 0 1 32,51.224078 43.60529,39.792629 0 0 1 36.65626,51.45587 l -0.626,2.28486 a 0.9978,0.91055661 0 0 0 0.2627,0.866224 l 2,1.825129 a 0.9956,0.90854897 0 0 0 0.39063,0.220119 l 2.52541,0.7691 0.84278,2.304581 a 0.99575,0.90868585 0 0 0 0.706,0.596196 l 4,0.912565 a 1.00946,0.92119711 0 0 0 0.68945,-0.06863 l 1.35547,-0.618472 1.4903,1.359921 a 1.001,0.91347681 0 0 0 0.25977,0.171106 l 2,0.912564 A 0.99692,0.90975355 0 0 0 53,63.087414 a 0.98071,0.89496089 0 0 0 0.3164,-0.04724 l 3,-0.912564 a 1,0.91256425 0 0 0 0.51563,-0.35914 l 1.38257,-1.89258 a 27.796,25.365636 0 0 1 3.97198,3.742636 1,0.91256425 0 0 0 1.627,-1.061385 z M 18.10544,57.107627 A 1.00043,0.91295665 0 0 0 19,57.612028 h 1.2793 L 21,59.585092 v 1.113082 l -1,0.456283 -3.55274,-1.621052 a 0.89783,0.81932756 0 0 0 -0.13086,-0.04901 l -3,-0.912564 a 0.99768,0.9104471 0 0 0 -1.02344,0.220119 l -0.833,0.760166 -2.3125,0.703131 -2.1486,-1.30712 A 38.596,35.22133 0 0 1 16.377,53.952974 Z m 37.253,3.38825 -2.28125,0.69333 -1.48438,-0.677296 -1.88575,-1.719937 a 0.99979,0.91237261 0 0 0 -1.1543,-0.171106 l -1.66894,0.761991 -3.10841,-0.709373 -0.82715,-2.262703 a 0.99313,0.90629493 0 0 0 -0.63184,-0.576585 l -2.77637,-0.84488 -1.43262,-1.307357 0.54462,-1.989107 a 39.12007,35.699577 0 0 1 18.00711,7.022245 z"
           id="path6"
           style="stroke-width:0.00012757" />
        <path
           inkscape:connector-curvature="0"
           d="m 32.826465,55.202837 -3,-2 a 0.989,0.989 0 0 0 -0.87109,-0.11621 l -3,1 a 0.99568,0.99568 0 0 0 -0.39063,0.24121 l -1,1 a 0.99983,0.99983 0 0 0 -0.1875,1.1543 l 1,2 a 0.99929,0.99929 0 0 0 0.57813,0.501 l 3,1 a 0.999,0.999 0 0 0 0.3164,0.0517 h 2 a 0.9989,0.9989 0 0 0 0.94824,-0.68359 l 1,-3 a 1.00031,1.00031 0 0 0 -0.39355,-1.14841 z m -2.2754,2.832 h -1.11719 l -2.4531,-0.81738 -0.49219,-0.98535 0.32319,-0.32327 2.3125,-0.7705 1.957,1.30468 z"
           id="path8"
           style="stroke-width:0.00012757" />
        <path
           inkscape:connector-curvature="0"
           d="m 8.240398,26.512496 a 0.70181205,0.65470334 89.920541 0 0 1.0595026,-0.0015 l 5.2304744,-7.732445 a 0.70228961,0.65514884 89.920541 0 0 -0.53128,-1.114424 l -2.620593,0.0036 -0.01948,-14.0457803 a 0.70228961,0.65514884 89.920541 0 0 -1.310296,0.00182 l 0.02045,14.7481313 a 0.70188228,0.65476885 89.920541 0 0 0.656123,0.70138 l 1.98912,-0.0028 -3.9464862,5.834343 -3.9626845,-5.823374 1.9891496,-0.0028 A 0.7018893,0.65477541 89.920541 0 0 7.4485733,18.37545 l -0.0224,-16.1526479 a 0.70229126,0.65515038 89.920541 0 0 -1.3102995,0.00182 l 0.02143,15.4503589 -2.6206027,0.0036 a 0.70228961,0.65514884 89.920541 0 0 -0.5282008,1.115893 z"
           id="path12"
           style="stroke-width:0.00012757" />
        <path
           inkscape:connector-curvature="0"
           d="m 55.702138,26.48207 a 0.70181206,0.65470334 89.703769 0 0 1.059487,-0.0055 l 5.201181,-7.752179 a 0.70228962,0.65514884 89.703769 0 0 -0.5355,-1.112405 l -2.620592,0.01355 -0.05809,-11.2364814 a 0.70229012,0.65514924 89.703769 0 0 -1.310281,0.00677 l 0.06173,11.9387634 a 0.70188931,0.65477541 89.703769 0 0 0.658771,0.698893 l 1.989096,-0.01028 -3.924381,5.849232 -3.984634,-5.808341 1.989078,-0.01028 a 0.70188229,0.65476885 89.703769 0 0 0.651509,-0.705666 L 54.795995,2.1957158 a 0.70229065,0.65514974 89.703769 0 0 -1.310282,0.00677 l 0.07988,15.4501652 -2.62056,0.01355 a 0.70228962,0.65514884 89.703769 0 0 -0.523975,1.117882 z"
           id="path14"
           style="stroke-width:0.00012757" />
        <path
           style="fill:none;stroke:#000000;stroke-width:1.00940812;stroke-linecap:butt;stroke-linejoin:miter;stroke-miterlimit:4;stroke-dasharray:2.01881621, 1.0094081;stroke-dashoffset:0;stroke-opacity:1"
           d="m -0.226784,55.496889 c 0,0 3.5832611,-4.875245 5.341457,-5.722977 1.0387602,-0.500849 1.7804847,-1.526128 2.4163732,-2.162017 0.6358865,-0.635887 2.6956878,-0.0066 3.5609708,-0.635886 1.049441,-0.763268 2.03484,-0.508707 2.289196,-1.017418 0.254354,-0.508707 3.730752,-2.445966 4.196859,-2.670721 2.486723,-1.199088 3.330102,1.742666 5.722989,0.50871 0.407548,-0.210163 1.526131,1.526128 2.416374,1.526128 0.890243,0 0.974373,-0.245693 2.289196,-0.254356 1.867156,-0.0123 3.688148,0.127175 5.595812,-0.254355 1.907663,-0.381531 4.70557,-1.526129 5.595812,-1.144597 0.890243,0.381533 4.069678,1.526129 4.324035,2.034839 0.254355,0.508706 1.526129,0.254354 2.416372,0.89024 0.890243,0.635885 2.162022,1.780482 3.815327,2.289192 1.65331,0.50871 2.631723,0.194971 3.688151,0.890241 0.708231,0.46611 0.796576,1.602864 1.52613,2.034837 1.031745,0.610902 0.254354,1.780479 2.797907,0.890238 2.543548,-0.890241 2.844431,0.193044 3.179439,1.653307 0.450094,1.961907 1.450253,1.316651 1.971251,2.034836 0.602077,0.829949 0.70568,0.491552 0.953832,1.271774 0.264885,0.832832 2.162018,1.526125 2.162018,1.526125"
           id="path831"
           inkscape:connector-curvature="0"
           sodipodi:nodetypes="csssssssssssssssssssc" />
        <path
           style="fill:none;stroke:#000000;stroke-width:1.00940812;stroke-linecap:butt;stroke-linejoin:miter;stroke-miterlimit:4;stroke-dasharray:2.01881615, 1.00940808;stroke-dashoffset:0;stroke-opacity:1"
           d="m 0.60650025,44.693002 c 0,0 4.21913995,-3.857826 5.97733995,-4.705558 1.03876,-0.500849 3.6881498,0.508709 4.3240398,-0.12718 0.63588,-0.635887 2.05979,-1.151196 2.92508,-1.780482 1.04944,-0.763268 3.43379,-1.144593 3.68815,-1.653304 0.25435,-0.508707 2.07744,-0.283952 2.54355,-0.508707 2.48672,-1.199088 2.1855,2.378552 4.57839,1.144596 0.40755,-0.210163 2.2892,1.398951 3.17944,1.398951 0.89024,0 1.73744,0.771725 3.05226,0.763062 1.86716,-0.0123 8.86106,-2.424029 10.42856,-1.271773 6.77864,1.881067 0.83461,1.44946 8.52089,3.942496 1.65331,0.50871 5.17528,1.848276 6.2317,2.543546 0.70823,0.46611 8.236468,4.782296 8.966018,5.214269"
           id="path831-1"
           inkscape:connector-curvature="0"
           sodipodi:nodetypes="cssssssssccsc" />
        <path
           inkscape:connector-curvature="0"
           d="m 41.890005,26.653363 v -2.161204 c 0,-0.3602 -0.270156,-0.630351 -0.630357,-0.630351 -0.360201,0 -0.630349,0.270151 -0.630349,0.630351 v 2.161204 c 0,0.360201 0.270148,0.630351 0.630349,0.630351 0.360201,0 0.630357,-0.315176 0.630357,-0.630351 z"
           id="path2"
           style="stroke-width:0.00012757" />
        <path
           inkscape:connector-curvature="0"
           d="m 43.736033,23.231458 c -0.360201,0 -0.630349,0.270149 -0.630349,0.63035 v 2.791555 c 0,0.360201 0.270148,0.630351 0.630349,0.630351 0.360201,0 0.630356,-0.27015 0.630356,-0.630351 v -2.791555 c 0,-0.360201 -0.270155,-0.63035 -0.630356,-0.63035 z"
           id="path4"
           style="stroke-width:0.00012757" />
        <path
           inkscape:connector-curvature="0"
           d="m 45.627094,24.492159 v 2.161204 c 0,0.360201 0.27015,0.630351 0.63035,0.630351 0.3602,0 0.630356,-0.27015 0.630356,-0.630351 v -2.161204 c 0,-0.3602 -0.270156,-0.630351 -0.630356,-0.630351 -0.3602,0 -0.63035,0.270151 -0.63035,0.630351 z"
           id="path6-5"
           style="stroke-width:0.00012757" />
        <path
           inkscape:connector-curvature="0"
           d="m 33.875527,21.790655 h 10.355785 c 1.125627,0 2.071158,-0.945527 2.071158,-2.071153 0,-1.125628 -0.945531,-2.071154 -2.071158,-2.071154 H 28.967783 c -7.969459,0 -11.616496,5.312958 -11.796596,5.538084 -0.495277,0.720401 -0.450251,1.665928 0.04503,2.341304 l 3.602017,5.042808 c 0.405226,0.585327 1.035575,0.855477 1.665931,0.855477 0.405227,0 0.855473,-0.135076 1.21568,-0.405226 0.09005,-0.09005 0.225123,-0.1801 0.315174,-0.270149 v 1.440801 L 22.75431,47.499974 c -0.09005,1.260703 0.810452,2.386329 2.116184,2.476378 1.260706,0.09005 2.386333,-0.810452 2.476385,-2.116178 l 1.215679,-14.7232 h 0.900498 l 1.21568,14.7232 c 0.09005,1.215677 1.080608,2.116178 2.296288,2.116178 0.04501,0 0.13507,0 0.180096,0 1.260705,-0.09005 2.206236,-1.215675 2.116185,-2.476378 L 34.010599,32.191447 Z m -9.815488,6.213461 -2.476385,-3.511957 c 0.585323,-0.540301 1.395777,-1.125627 2.521411,-1.665927 z"
           id="path12-3"
           style="stroke-width:0.00012757" />
        <ellipse
           ry="4.5925579"
           rx="4.592567"
           cx="28.967781"
           cy="11.885139"
           id="circle14"
           style="stroke-width:0.00012757" />
        <path
           style="opacity:1;vector-effect:none;fill:#000000;fill-opacity:1;fill-rule:evenodd;stroke:none;stroke-width:0.33646941;stroke-linecap:butt;stroke-linejoin:round;stroke-miterlimit:4;stroke-dasharray:none;stroke-dashoffset:0;stroke-opacity:0.64321606;paint-order:fill markers stroke"
           id="path1659"
           sodipodi:type="arc"
           sodipodi:cx="43.707172"
           sodipodi:cy="31.69824"
           sodipodi:rx="3.3770099"
           sodipodi:ry="3.4894433"
           sodipodi:start="3.1747539"
           sodipodi:end="3.1295673"
           sodipodi:open="true"
           d="m 40.332019,31.582547 a 3.3770099,3.4894433 0 0 1 3.448984,-3.372916 3.3770099,3.4894433 0 0 1 3.302991,3.525485 3.3770099,3.4894433 0 0 1 -3.374361,3.452567 3.3770099,3.4894433 0 0 1 -3.379226,-3.447482" />
      </g>
    </g>
  </g>
</svg>
